<?xml version="1.0" encoding="utf-8"?>
<!-- Generator: Adobe Illustrator 26.4.1, SVG Export Plug-In . SVG Version: 6.00 Build 0)  -->
<svg version="1.1" id="Layer_2" xmlns="http://www.w3.org/2000/svg" xmlns:xlink="http://www.w3.org/1999/xlink" x="0px" y="0px"
	 viewBox="0 0 144 144" style="enable-background:new 0 0 144 144;" xml:space="preserve">
<style type="text/css">
	.st0{fill:#FFFFFF;}
	.st1{fill:#005E8D;}
	.st2{fill:#CEFFC0;}
	.st3{fill:#8E8E8E;}
	.st4{fill:#A5CC9A;}
	.st5{fill:#727272;}
	.st6{fill:#84A37B;}
	.st7{fill:#D8FFCD;}
	.st8{fill:#A5A5A5;}
	.st9{fill:#B7D6AE;}
	.st10{fill:#333333;}
</style>
<path class="st0" d="M142.5,37.1L73,4.8c-0.4-0.2-0.9-0.2-1.3,0L2.3,37.1c-0.5,0.2-0.9,0.8-0.9,1.4v96.3c0,0.5,0.3,1,0.7,1.3
	c0.4,0.3,1,0.3,1.4,0.1l68.8-32l68.8,32c0.2,0.1,0.4,0.1,0.6,0.1c0.3,0,0.6-0.1,0.8-0.2c0.4-0.3,0.7-0.8,0.7-1.3V38.5
	C143.4,37.9,143.1,37.3,142.5,37.1z"/>
<g>
	<path class="st1" d="M72.4,6.2L2.9,38.5v96.3l69.5-32.3l69.5,32.3V38.5L72.4,6.2z"/>
	<path class="st0" d="M131.7,84.4H124l-1.9-7.4h-9.8l-1.9,7.4h-7.7l10.3-34.5h8.6L131.7,84.4z M114.3,69.9h6.1l-3-11.8L114.3,69.9z"
		/>
	<path class="st0" d="M61.6,84.4h-8.6c-4.3,0-7.8-3.5-7.8-7.9V57.8c0-4.4,3.5-7.9,7.8-7.9h8.6c4.3,0,7.8,3.5,7.8,7.9v18.6
		C69.4,80.9,65.9,84.4,61.6,84.4z M54.5,57.1c-1.2,0-2.1,1-2.1,2.2v15.8c0,1.2,1,2.2,2.1,2.2h5.7c1.2,0,2.1-1,2.1-2.2V59.3
		c0-1.2-1-2.2-2.1-2.2H54.5z"/>
	<path class="st0" d="M99.8,84.4h-7.5l-4.7-10.9h-5.1v10.9h-6.9V49.9l15.6,0c4.3,0,7.7,3.5,7.7,7.9v7.7c0,3-1.6,5.7-4.2,7L99.8,84.4
		z M82.6,66.4h7.2c1.2,0,2.2-1,2.2-2.2v-4.9c0-1.2-1-2.2-2.2-2.2h-7.2V66.4z"/>
	<path class="st0" d="M30,49.9H14.9v34.5H30c5,0,9-4,9-9V58.9C39,54,35,49.9,30,49.9z M32,74.2c0,1.7-1.4,3.1-3.1,3.1h-7V57.1h7
		c1.7,0,3.1,1.4,3.1,3.1V74.2z"/>
</g>
<g>
	<path class="st0" d="M86.3,67.2c-0.5-1.7-2.2-2.5-3.3-3l-0.1-0.1c-0.8-0.4-1.5-0.7-2-0.8c-0.1,0-0.2-0.1-0.4-0.2
		c-0.1,0-0.2-0.1-0.3-0.1c-0.1-1.2-0.2-2.4-0.3-4c-0.9-9.2-7.3-16.6-16.5-19.4c0,0-0.1,0-0.1,0c0.1-0.3,0.3-0.5,0.4-0.8
		c0.2-0.5,0.1-1-0.1-1.5c-0.2-0.4-0.6-0.8-1.1-1c-1-0.3-2.1,0.2-2.4,1.2c-0.1,0.4-0.4,0.8-0.7,1.3c-0.3,0-0.6-0.1-1-0.1
		c0-0.3,0-0.7,0-1c0-1-0.8-1.9-1.9-1.9c-1,0-1.9,0.8-1.9,1.9c0,0.3,0,0.6,0,1c-0.2,0-0.3,0-0.5,0c-0.1-0.4-0.3-0.8-0.5-1.2
		c-0.2-0.5-0.6-0.8-1.1-1c-0.5-0.2-1-0.1-1.5,0.1c-0.5,0.2-0.8,0.6-1,1.1c-0.2,0.5-0.1,1,0.1,1.5c0,0.1,0.1,0.1,0.1,0.2
		c-0.1,0-0.1,0-0.2,0c-4.6,1.2-8.7,3.8-11.7,7.6c-4,5-4.9,11.8-5,16.6c0,0.6,0,1.2,0,1.8c-1.2,0.6-2.1,1.7-2.5,2.6
		c-0.1,0.3-1,2.6,0,4.6c0.8,1.6,2.3,2.2,3.2,2.6c0.2,0.1,0.5,0.2,0.8,0.2c0.7,2.2,1.6,4.2,2.8,5.8c2.2,3.1,5.2,5.2,9.2,6.4
		c0,0.7,0,1.5,0.1,2.1l0,1.1c0,0.8,0,1.7,0,2.5c0,0.1,0,0.3,0,0.4c0,0.1,0,0.2,0,0.4c0,0.2,0,0.5,0,0.7h0c-0.1,0-0.1,0.1-0.2,0.1
		c-0.2,0.1-0.4,0.2-0.6,0.3c-0.9,0.4-1.3,1.4-1.1,2.3c0.2,0.9,1,1.5,1.9,1.6l0.1,0c1.4,0,2.4-0.8,3.1-1.4c0.5-0.4,0.7-1,0.7-1.7
		c0-0.1,0-0.3,0.1-0.4c0.1-0.5,0.1-1.1,0-1.8c0-0.2,0-0.4,0-0.5c0-1.3,0-2.6-0.1-3.8l0-1.1c1.5,0.2,3.1,0.4,5,0.5
		c1.3,0.1,3.1,0,4.8-0.2c0.2,1.6,0.5,3.3,0.6,5c0,0.1,0,0.3,0,0.5c0,0.3,0,0.6,0,0.9c-0.3,0.7-0.3,1.5,0.2,2.2
		c0.8,1.1,2.1,1.5,3.2,1.5c0.2,0,0.4,0,0.7-0.1c0.8-0.2,1.4-0.8,1.6-1.6c0.2-0.8-0.2-1.7-1-2.3c-0.2-0.1-0.4-0.2-0.5-0.3
		c0-0.1,0-0.3,0-0.4c0-0.3,0-0.6,0-1c-0.2-1.7-0.4-3.5-0.7-5.1c0,0,0-0.1,0-0.1c4.7-1.2,8.3-3.6,10.8-7c1.7-2.4,3-5,3.7-7.8
		c1.7-0.1,4.9-0.6,6.4-2.6C86.5,69.8,86.7,68.5,86.3,67.2z M80.1,69.2c0-0.6,0.1-1.1,0.1-1.7c0.3,0.1,0.6,0.2,0.9,0.4l0.3,0.1
		c0.2,0.1,0.6,0.3,0.9,0.5C82,68.7,81.2,69,80.1,69.2z"/>
	<g>
		<path class="st2" d="M74.1,80.2c4.8-6.5,4.5-13.4,3.7-21c-1.8-18.4-26.6-25.4-38.1-11c-3.4,4.3-4.5,10.1-4.6,15.4
			c-0.1,5.5,0.6,11.9,4,16.6c3.9,5.5,10.5,6.7,16.9,7C62.7,87.5,70.1,85.8,74.1,80.2"/>
		<path class="st3" d="M46.9,50c-5.3,0-9.5,4.3-9.5,9.5c0,5.3,4.3,9.5,9.5,9.5c5.3,0,9.5-4.3,9.5-9.5C56.4,54.3,52.2,50,46.9,50
			 M46.9,67.3c-4.3,0-7.8-3.5-7.8-7.8c0-4.3,3.5-7.8,7.8-7.8c4.3,0,7.8,3.5,7.8,7.8C54.7,63.9,51.2,67.3,46.9,67.3"/>
		<path class="st4" d="M47.1,72.2c-0.4,0.2-0.3,0.7-0.3,1.7c0,0.7,0.1,1.4,0.4,1.9l0,0c-0.3-0.5-0.3-0.8-0.3-1.5
			C46.9,73.6,47,72.9,47.1,72.2"/>
		<path class="st4" d="M47.2,51.8c-0.1,0-0.1,0-0.2,0c0.2,0,0.3,0,0.5,0l0.1,0C47.5,51.8,47.3,51.8,47.2,51.8"/>
		<path class="st5" d="M48.2,51.7c-0.3,0-0.6,0-0.9,0.1c0.1,0,0.2,0,0.4,0C47.8,51.7,48,51.7,48.2,51.7"/>
		<path class="st4" d="M55.1,65.9c-1.4,1.8-3.4,3.1-5.7,3.7c-0.6,0.2-1.2,0.3-1.8,0.3c-0.1,0-0.1,0-0.2,0c-0.2,0-0.3,0-0.5,0
			c0,0-0.1,0-0.1,0l0,0c0.3,0.6,0.3,1.4,0.3,2.2c0.1-0.1,0.3-0.1,0.5-0.1c0.2,0,0.4,0,0.7,0.1c0.1,0,0.2,0,0.3,0
			c1.2,0,0.4-1.2,1.3-2c0.8-0.7,2.1-0.9,2.9-1.6C53.8,67.9,54.7,67,55.1,65.9 M36.1,62.4c0,0.4,0,0.8,0,1.2c0,4,0.3,7.5,1.2,10.4
			c1.1-0.2,2.4-0.2,3.5-0.2c1.3-0.1,2.6-0.2,3.9-0.2c0.1-1.1,0.1-2.2-1.1-2.8c-0.8-0.4-1.7-0.4-2.6-0.8c-1.8-0.9-3.3-2.4-4.1-4.3
			C36.5,64.5,36.2,63.5,36.1,62.4 M61,41.9c0.1,0,0.2,0.1,0.3,0.1c-0.1,0-0.1-0.1-0.2-0.1L61,41.9 M56,41.3
			c-6.1,0-11.7,2.6-15.5,7.4c-2.1,2.6-3.2,5.8-3.8,8.9l0.1,0.1c0.6-3.4,3-6.3,6.1-7.6c0-0.1,0.1-0.1,0.1-0.2c1.4-1.7,2.9-4.1,4.9-5
			c2.6-1.2,5.1-2.1,7.9-2.6c1.1-0.2,2.4-0.5,3.6-0.5c0.1,0,0.3,0,0.4,0C58.5,41.5,57.2,41.3,56,41.3"/>
		<path class="st4" d="M44.1,75.4c-0.4,0-1,0.1-1.2,0.1c-0.8,0-2.4,0.4-3.9,0.4c-0.5,0-0.9,0-1.3-0.1c0.6,1.5,1.3,2.8,2.1,4
			c3.8,5.4,10.4,6.4,16.3,6.7l0.1,0c-2.1-0.6-4.1-1.4-5.8-3.2c-1.2-1.2-1.8-2.8-2.1-4.4c-0.2-1,0-1.7-0.1-2.4
			c-0.5-0.1-0.8-0.3-1-0.6c0.2,0.3,0.5,0.6,0.6,0.9c0.5,1.1,0,1.3-0.9,1.3c-0.1,0-0.3,0-0.4,0c-1.2-0.1-1.2-0.6-1.6-1.6
			c-0.1-0.3-0.1-0.7-0.3-0.8C44.6,75.4,44.4,75.4,44.1,75.4"/>
		<path class="st6" d="M36.7,57.6c-0.3,1.7-0.5,3.3-0.6,4.8c0.1,1.2,0.4,2.1,0.9,3.2c0.8,1.8,2.3,3.4,4.1,4.3
			c0.8,0.4,1.8,0.3,2.6,0.8c1.1,0.6,1.1,1.7,1.1,2.8c-1.3,0-2.6,0.1-3.9,0.2c-1.1,0-2.4,0-3.5,0.2c0.2,0.6,0.4,1.2,0.6,1.7
			c0.4,0.1,0.8,0.1,1.3,0.1c1.4,0,3.1-0.4,3.9-0.4c0.2,0,0.8-0.1,1.2-0.1c0.2,0,0.4,0,0.5,0.1c0.3,0.2,0.2,0.5,0.3,0.8
			c0.4,1.1,0.3,1.6,1.6,1.6c0.2,0,0.3,0,0.4,0c0.9,0,1.4-0.2,0.9-1.3c-0.2-0.4-0.5-0.6-0.6-0.9c-0.4-0.5-0.4-1.1-0.4-1.9
			c0-1-0.1-1.5,0.3-1.7c0.1-0.8,0-1.6-0.3-2.2l0,0c-5.7-0.1-10.2-4.7-10.2-10.4C36.5,58.9,36.6,58.3,36.7,57.6L36.7,57.6"/>
		<path d="M72.8,77.7c0,0-0.1,0-0.1,0c-0.1-0.1-0.2-0.2-0.1-0.4c0.2-0.2,0.3-0.5,0.4-0.7c0.1-0.1,0.2-0.2,0.4-0.1
			c0.1,0.1,0.2,0.2,0.1,0.4c-0.1,0.2-0.3,0.5-0.5,0.7C73,77.6,72.9,77.7,72.8,77.7z"/>
		<path d="M71.6,79.2L71.6,79.2c-0.2-0.1-0.3-0.2-0.2-0.4c0.1-0.2,0.2-0.3,0.3-0.4c0.1-0.1,0.3-0.1,0.4,0c0.1,0.1,0.1,0.3,0,0.4l0,0
			c-0.1,0.1-0.2,0.2-0.2,0.3C71.8,79.2,71.7,79.2,71.6,79.2z"/>
		<path d="M73,78.7c-0.1,0-0.1,0-0.2-0.1c-0.1-0.1-0.1-0.3,0-0.4c0.1-0.1,0.1-0.1,0.1-0.2c0.1-0.1,0.2-0.2,0.4-0.1
			c0.1,0.1,0.2,0.2,0.1,0.4c-0.1,0.1-0.1,0.2-0.2,0.3C73.2,78.7,73.1,78.7,73,78.7z"/>
		<path d="M74.6,75.7L74.6,75.7c-0.2,0-0.3-0.2-0.3-0.3c0-0.2,0.1-0.4,0.1-0.6c0-0.1,0.1-0.2,0.3-0.2c0.1,0,0.2,0.1,0.2,0.3
			c0,0.2-0.1,0.4-0.1,0.6C74.8,75.6,74.7,75.7,74.6,75.7z"/>
		<path d="M69.2,81.3l-0.1,0c-0.1-0.1-0.2-0.2-0.1-0.4c0.1-0.1,0.1-0.2,0.2-0.3c0.1-0.1,0.3-0.1,0.4,0c0.1,0.1,0.1,0.3,0,0.4
			c-0.1,0.1-0.1,0.1-0.1,0.2C69.4,81.3,69.3,81.3,69.2,81.3z"/>
		<path d="M57.4,88.1c-0.5,0-0.9,0-1.3,0c-5.9-0.3-13.3-1.3-17.6-7.4c-2.9-4.1-4.2-9.7-4.1-17.1c0.1-4.6,0.9-11.2,4.8-15.9
			c2.8-3.6,6.7-6.1,11.1-7.2c4.1-1.1,8.5-1,12.7,0.3c8.9,2.7,14.9,9.7,15.8,18.5c0.8,7.8,1,14.8-3.9,21.5
			C70.1,87.2,61.8,88.1,57.4,88.1 M56,41.3c-6.1,0-11.7,2.6-15.5,7.4c-3.5,4.4-4.3,10.5-4.4,14.9C36,70.7,37.2,76,39.9,79.7
			c3.8,5.4,10.4,6.4,16.3,6.7c3.6,0.2,12.6-0.2,17.3-6.7c4.5-6.3,4.3-12.9,3.6-20.4c-0.8-8-6.4-14.5-14.6-17
			C60.3,41.7,58.1,41.3,56,41.3"/>
		<path d="M47.2,98.2L47.2,98.2c-0.6,0-0.9-0.3-1.1-0.8c-0.1-0.4,0.1-0.9,0.5-1.1c0.3-0.2,0.6-0.3,0.8-0.4c0.2-0.1,0.4-0.2,0.5-0.2
			c0,0,0-0.1,0.1-0.2c0.1-0.4,0-0.8,0-1.3c0-0.2,0-0.5,0-0.7c0-1.2-0.1-2.5-0.1-3.7c-0.1-1.1-0.1-2.3-0.1-3.4c0-0.6,0.4-1,1-1
			c0.6,0,1,0.4,1,1c0,1.1,0.1,2.2,0.1,3.3c0.1,1.2,0.1,2.5,0.1,3.7c0,0.2,0,0.4,0,0.7c0,0.5,0,1,0,1.6c0,0.2-0.1,0.3-0.1,0.5
			c0.1,0.3-0.1,0.7-0.3,0.9C49.1,97.7,48.2,98.2,47.2,98.2z"/>
		<path d="M64.8,98c-0.8,0-1.8-0.3-2.3-1c-0.3-0.4-0.3-1,0.1-1.3c-0.1-0.4-0.1-0.8-0.1-1.2c0-0.2,0-0.5,0-0.7
			c-0.2-1.7-0.4-3.4-0.7-5c-0.1-0.5-0.1-1-0.2-1.5c-0.1-0.6,0.3-1.1,0.9-1.2c0.6-0.1,1.1,0.3,1.2,0.9c0.1,0.5,0.1,1,0.2,1.5
			c0.2,1.7,0.5,3.4,0.7,5.1c0,0.3,0,0.6,0,0.9c0,0.4,0,0.7,0.1,1c0.1,0.1,0.1,0.1,0.4,0.3c0.2,0.1,0.4,0.2,0.6,0.3
			c0.4,0.2,0.6,0.7,0.4,1.1c-0.1,0.4-0.4,0.7-0.9,0.8C65.1,98,65,98,64.8,98z"/>
		<path d="M48.7,63.6c-1.1,0-2.1-0.5-2.7-1.4c-0.9-1.4-0.8-3.3,0.3-4.6c1-1.1,2.4-1.5,3.7-1c1.4,0.5,2.4,2,2.4,3.6
			c0,1.5-0.9,2.7-2.4,3.3C49.6,63.5,49.1,63.6,48.7,63.6 M48.6,59.6c-0.2,0.1-0.3,0.4-0.2,0.6c0,0,0.2,0.1,0.4,0.1
			c0.3,0,0.4-0.1,0.5-0.2c0.1-0.1,0-0.2,0-0.3C49.1,59.6,48.8,59.5,48.6,59.6"/>
		<path d="M66.4,62.6c-0.6,0-1.1-0.3-1.4-0.8c-0.5-0.7-0.4-1.7,0.2-2.3c0.5-0.6,1.2-0.7,1.9-0.5c0.7,0.3,1.2,1,1.2,1.8
			c0,0.7-0.5,1.3-1.2,1.6C66.9,62.5,66.6,62.6,66.4,62.6z M66.5,60.9l0.2,0.6L66.5,60.9c0.1,0,0.2-0.1,0.2-0.1c0,0,0.1-0.1,0-0.2
			c-0.1-0.1-0.2-0.2-0.3-0.2c0,0-0.1,0.1-0.1,0.2c0,0.1,0,0.1,0,0.2C66.3,60.9,66.4,60.9,66.5,60.9L66.5,60.9z"/>
		<path d="M57.9,66.6c-1,0-1.7-0.6-2-1.6c-0.1-0.3,0.1-0.6,0.4-0.6s0.6,0.1,0.6,0.4c0.1,0.4,0.4,0.8,1.1,0.8c0.5,0,0.7-0.3,0.9-1
			c0.1-0.3,0.4-0.4,0.7-0.3c0.3,0.1,0.4,0.4,0.3,0.7c-0.3,0.7-0.6,1.6-1.8,1.6C58,66.6,57.9,66.6,57.9,66.6z"/>
		<path d="M38.6,74.9c-0.3,0-0.5,0-0.8,0l-0.3,0c-1-0.1-2.2-0.2-3.1-0.6c-0.8-0.3-2.1-0.8-2.7-2.1c-0.7-1.5-0.2-3.3,0.1-3.8
			c0.4-1,1.8-2.4,3.1-2.4h0c0.6,0,1,0.4,1,1c0,0.6-0.4,1-1,1.1c-0.3,0-1.1,0.7-1.3,1.1c-0.3,0.8-0.3,1.7-0.1,2.2
			c0.2,0.5,0.8,0.7,1.6,1c0.7,0.3,1.7,0.4,2.6,0.4l0.3,0c0.8,0.1,1.9,0,2.9-0.2c0.3,0,0.6-0.1,0.9-0.1c0.5-0.1,1.1-0.1,1.6-0.1
			c0.8,0,1.6,0,2.2-0.2c0.6-0.2,1.1,0.2,1.3,0.7c0.2,0.6-0.2,1.1-0.7,1.3c-0.9,0.3-1.9,0.3-2.8,0.3c-0.5,0-1,0-1.4,0.1
			c-0.3,0-0.6,0.1-0.9,0.1C40.4,74.8,39.5,74.9,38.6,74.9z"/>
		<path d="M47.1,74.8c-0.1,0-0.1,0-0.2,0c-0.8-0.1-1.4-0.6-1.5-1.4c-0.2-0.9,0.3-1.8,1.1-2.2c0.7-0.3,1.4-0.2,1.9,0.3
			c0.6,0.6,0.7,1.5,0.3,2.2C48.5,74.4,47.9,74.8,47.1,74.8z M47.1,73.1c0.1,0.1,0.3,0.1,0.3,0l0.1,0c0-0.1-0.2-0.3-0.3-0.3
			L47.1,73.1z M46.9,72.9c0,0,0.1,0.1,0.2,0.2l0-0.3C47,72.8,46.9,72.9,46.9,72.9z"/>
		<path d="M48.1,77.3c-0.4,0-0.8-0.1-0.9-0.1c-0.9-0.4-0.9-1.2-0.9-1.6c0-0.1,0-0.1,0-0.2c0-0.3,0-0.6,0-0.9c0-0.6,0-1.2,0-1.7
			c0-0.2,0-0.5,0-0.8c0-0.8-0.1-1.6-0.2-2.3c-0.1-0.3,0.1-0.6,0.3-0.8c0.7-0.6,2.2-0.7,2.8-0.6c0.4,0.1,0.7,0.3,0.7,0.7
			c0.2,1.2,0.2,2.3,0.1,3.3c0,0.2,0,0.4,0,0.6c0,2.6-0.3,3.4-0.5,3.8C49.2,77.2,48.6,77.3,48.1,77.3z M48,75.6c0.1,0,0.1,0,0.1,0
			c0.1-0.3,0.2-1.1,0.2-2.7c0-0.2,0-0.4,0-0.6c0-0.8,0-1.5,0-2.3C48.1,70,48,70,47.8,70c0.1,0.6,0.1,1.3,0.1,1.9c0,0.3,0,0.5,0,0.7
			c0,0.6,0,1.2,0,1.8c0,0.3,0,0.6,0,0.9C48,75.5,48,75.5,48,75.6z"/>
		<path d="M46.9,69.9c-5.7,0-10.4-4.7-10.4-10.4c0-5.7,4.7-10.4,10.4-10.4c5.7,0,10.4,4.7,10.4,10.4C57.3,65.3,52.6,69.9,46.9,69.9
			 M46.9,50.9c-4.8,0-8.7,3.9-8.7,8.7c0,4.8,3.9,8.7,8.7,8.7c4.8,0,8.7-3.9,8.7-8.7C55.6,54.8,51.7,50.9,46.9,50.9"/>
		<path class="st0" d="M51,59.3c0.7-0.5,0.1-2.1-0.7-1.4C49.6,58.5,50.1,59.9,51,59.3"/>
		<path class="st0" d="M67.5,60.2c0.5-0.3,0.1-1.4-0.5-0.9C66.6,59.7,66.9,60.6,67.5,60.2z"/>
		<path d="M77.1,72.9c-0.6,0-1.2-0.2-1.5-0.7c-0.3-0.5-0.2-1.2,0.5-1.8c0.7-0.5,1.4-0.2,1.8-0.1c0.1,0,0.1,0,0.1,0.1
			c0.2,0,0.2,0,0.4,0c1.8,0,4.1-0.5,4.8-1.4c0.1-0.2,0.2-0.4,0.1-0.9c-0.1-0.4-1.2-0.9-1.6-1.1l-0.2-0.1c-0.6-0.3-1.2-0.5-1.7-0.7
			c-0.2-0.1-0.4-0.1-0.6-0.2c-0.2-0.1-0.6-0.2-0.7-0.2c-0.6,0.1-1.1-0.3-1.1-0.9c-0.1-0.6,0.4-1.1,0.9-1.1c0.6-0.1,1.2,0.2,1.7,0.4
			c0.2,0.1,0.3,0.1,0.4,0.2c0.6,0.2,1.2,0.4,1.9,0.8l0.2,0.1c0.9,0.4,2.4,1.1,2.7,2.4c0.3,1,0.2,1.9-0.4,2.7
			c-1.6,2.1-5.6,2.2-6.4,2.2c-0.1,0-0.1,0-0.1,0c-0.1,0.1-0.3,0.2-0.4,0.3C77.7,72.9,77.4,72.9,77.1,72.9z"/>
		<path d="M53,42.8c-0.4,0-0.7-0.2-0.8-0.6c-0.1-0.3-0.2-0.7-0.3-1.1c-0.3-0.8-0.5-1.7-0.9-2.4c-0.2-0.4,0-0.9,0.4-1.2
			c0.4-0.2,0.9,0,1.1,0.4c0.4,0.9,0.7,1.8,1,2.7c0.1,0.4,0.2,0.7,0.3,1c0.2,0.4-0.1,0.9-0.6,1.1C53.1,42.8,53.1,42.8,53,42.8z"/>
		<path d="M56.4,42.4L56.4,42.4c-0.5,0-0.9-0.4-0.8-0.9c0-0.7,0-1.3-0.1-2.1c0-0.6-0.1-1.2-0.1-1.8c0-0.5,0.4-0.8,0.8-0.8
			s0.8,0.4,0.8,0.8c0,0.6,0,1.1,0.1,1.7c0.1,0.7,0.1,1.5,0.1,2.2C57.2,42.1,56.8,42.4,56.4,42.4z"/>
		<path d="M59.5,43c-0.1,0-0.2,0-0.3-0.1c-0.4-0.2-0.7-0.7-0.5-1.1c0.3-0.8,0.7-1.4,1.1-2.1c0.4-0.6,0.8-1.3,1-1.9
			c0.2-0.4,0.6-0.7,1.1-0.5c0.4,0.2,0.7,0.6,0.5,1.1c-0.3,0.8-0.7,1.6-1.2,2.2c-0.4,0.6-0.8,1.2-1,1.8C60.1,42.8,59.8,43,59.5,43z"
			/>
		<path d="M66.8,54.6c-0.1,0-0.1,0-0.2,0c-0.8-0.3-1.6-0.4-2.4-0.2c-0.3,0.1-0.6-0.1-0.6-0.4c0-0.3,0.1-0.6,0.4-0.6
			c1-0.2,1.9-0.1,2.9,0.3c0.3,0.1,0.4,0.4,0.3,0.7C67.2,54.4,67,54.6,66.8,54.6z"/>
		<path d="M49.2,48.5c-0.3,0-0.7-0.1-1-0.1c-0.3-0.1-0.6-0.1-0.9-0.1c-0.3,0-0.5-0.2-0.5-0.5c0-0.3,0.2-0.5,0.5-0.5
			c0.4,0,0.7,0.1,1.1,0.2c0.3,0.1,0.6,0.1,0.9,0.1c0.3,0,0.5,0.2,0.6,0.5c0,0.3-0.2,0.5-0.5,0.6C49.3,48.5,49.2,48.5,49.2,48.5z"/>
		<path class="st7" d="M48.7,59.6L48.7,59.6c-0.2,0.1-0.3,0.5-0.3,0.6c0,0,0.2,0.1,0.4,0.1c0.3,0,0.4-0.1,0.5-0.2
			c0.1-0.1,0-0.2,0-0.3C49.1,59.6,48.9,59.6,48.7,59.6 M48.7,63.6c-1.1,0-2.1-0.5-2.7-1.4c-0.9-1.4-0.8-3.3,0.3-4.6
			c0.7-0.8,1.6-1.2,2.6-1.2c0.4,0,0.7,0.1,1.1,0.2c1.4,0.5,2.4,2,2.4,3.6c0,1.5-0.9,2.7-2.4,3.3C49.6,63.5,49.1,63.6,48.7,63.6
			 M47.5,51.8c-2.5,0.6-5.7,3.2-6,5.6c-0.2,1.8-0.4,3.5,0.5,5.1c0.8,1.4,1.8,2.9,3.4,3.6c1.2,0.4,2.4,0.4,3.6,0.6
			C48.4,66.9,47.7,67,47,67c-2.3,0-4.9-1.1-6.3-2.8c1.4,1.9,3.7,3.1,6.2,3.1c4.3,0,7.8-3.5,7.8-7.8C54.7,55.4,51.5,52.1,47.5,51.8
			 M46.9,51.8c-4.3,0-7.8,3.5-7.8,7.8c0,1.6,0.5,3.2,1.4,4.4c0,0-0.1-0.1-0.1-0.2c-1.3-2-1.4-5.3-0.4-7.5c0.3-0.8,0.8-1.5,1.5-2.1
			c0.9-0.9,2-1.6,3.1-1.9C45.3,52.1,46.2,51.9,46.9,51.8L46.9,51.8"/>
		<path class="st8" d="M54.7,59.6c0,4.3-3.5,7.8-7.8,7.8c-2.5,0-4.8-1.2-6.2-3.1c-0.1-0.1-0.1-0.1-0.2-0.2c-0.9-1.3-1.4-2.8-1.4-4.4
			l0,0c0,4.3,3.5,7.8,7.8,7.8C51.2,67.4,54.7,63.9,54.7,59.6L54.7,59.6"/>
		<path class="st9" d="M47,51.8c-0.9,0.1-1.7,0.3-2.5,0.5c-1.1,0.3-2.2,1.1-3.1,1.9c-0.7,0.6-1.2,1.4-1.5,2.1
			c-0.9,2.2-0.8,5.5,0.4,7.5c0,0.1,0.1,0.1,0.1,0.2c0.1,0.1,0.1,0.1,0.2,0.2C42,65.9,44.6,67,47,67c0.7,0,1.5-0.1,2.1-0.3
			c-1.2-0.2-2.4-0.2-3.6-0.6c-1.6-0.6-2.7-2.1-3.4-3.6c-0.9-1.6-0.7-3.3-0.5-5.1c0.3-2.4,3.4-5.1,6-5.6C47.3,51.8,47.2,51.8,47,51.8
			"/>
		<path class="st3" d="M40.5,64c0.1,0.1,0.1,0.1,0.2,0.2C40.6,64.1,40.6,64.1,40.5,64"/>
		<path class="st10" d="M48.8,60.3c-0.2,0-0.3-0.1-0.4-0.1c-0.1-0.1,0.1-0.5,0.2-0.6l0.1,0c0.2,0,0.4,0.1,0.6,0.3
			c0,0.1,0.1,0.2,0,0.3C49.2,60.1,49.1,60.3,48.8,60.3 M50.6,59.5c-0.6,0-0.8-1.1-0.3-1.5c0.2-0.1,0.3-0.2,0.4-0.2
			c0.6,0,0.9,1.1,0.3,1.6C50.8,59.4,50.7,59.5,50.6,59.5 M48.8,56.3c-1,0-1.9,0.4-2.6,1.2c-1.1,1.3-1.2,3.2-0.3,4.6
			c0.6,0.9,1.6,1.4,2.7,1.4c0.4,0,0.9-0.1,1.3-0.2c1.5-0.6,2.4-1.8,2.4-3.3c0-1.6-1-3.1-2.4-3.6C49.6,56.4,49.2,56.3,48.8,56.3"/>
		<path class="st0" d="M50.7,57.8c-0.1,0-0.3,0.1-0.4,0.2c-0.5,0.4-0.3,1.5,0.3,1.5c0.1,0,0.3,0,0.4-0.1
			C51.6,58.9,51.3,57.8,50.7,57.8"/>
		<path d="M46.9,67.9c-4.6,0-8.3-3.7-8.3-8.3s3.7-8.3,8.3-8.3s8.3,3.7,8.3,8.3C55.2,64.1,51.5,67.9,46.9,67.9z M46.9,52.3
			c-4,0-7.3,3.3-7.3,7.3s3.3,7.3,7.3,7.3s7.3-3.3,7.3-7.3C54.2,55.5,50.9,52.3,46.9,52.3z"/>
	</g>
</g>
</svg>
