<?xml version="1.0" encoding="utf-8"?>
<!-- Generator: Adobe Illustrator 26.4.1, SVG Export Plug-In . SVG Version: 6.00 Build 0)  -->
<svg version="1.1" id="Layer_2" xmlns="http://www.w3.org/2000/svg" xmlns:xlink="http://www.w3.org/1999/xlink" x="0px" y="0px"
	 viewBox="0 0 144 144" style="enable-background:new 0 0 144 144;" xml:space="preserve">
<style type="text/css">
	.st0{fill:#FFFFFF;}
	.st1{fill:#CEFFC0;}
	.st2{fill:#8E8E8E;}
	.st3{fill:#A5CC9A;}
	.st4{fill:#727272;}
	.st5{fill:#84A37B;}
	.st6{fill:#D8FFCD;}
	.st7{fill:#A5A5A5;}
	.st8{fill:#B7D6AE;}
	.st9{fill:#333333;}
</style>
<path class="st0" d="M132.6,68.9c-1-3.5-4.7-5.2-6.8-6.3c0,0-0.1-0.1-0.1-0.1l-0.3-0.1c-1.8-0.9-3-1.4-4.2-1.8l-0.1,0
	c-0.2-0.1-0.5-0.2-0.7-0.3l-0.4-0.1c-0.2-0.1-0.4-0.2-0.6-0.2c-0.1-2.5-0.4-5.2-0.7-8.7c-1.9-19.5-15.5-35.4-35.3-41.3
	C83.1,10,83,9.9,82.8,9.9c0.4-0.7,0.6-1.4,0.9-2c0.7-2-0.4-4.2-2.3-4.9c-1-0.3-2-0.3-2.9,0.2c-0.9,0.4-1.6,1.2-1.9,2.2
	c-0.3,0.9-0.9,1.9-1.5,2.9c-0.8-0.1-1.6-0.2-2.4-0.3c0-0.8-0.1-1.6-0.1-2.4c0-2.1-1.7-3.8-3.8-3.8c-2.1,0-3.8,1.7-3.8,3.8
	c0,0.7,0,1.5,0,2.3c-0.5,0-1,0.1-1.5,0.1c-0.3-0.9-0.7-1.8-1.1-2.8c-0.4-0.9-1.2-1.7-2.2-2c-1-0.4-2.1-0.3-3,0.2
	c-0.9,0.5-1.6,1.2-1.9,2.2c-0.3,1-0.3,2,0.2,3c0.1,0.2,0.2,0.5,0.3,0.7c-0.2,0.1-0.4,0.1-0.6,0.2c-9.9,2.6-18.5,8.2-24.8,16.2
	C21.6,36.4,19.7,50.8,19.6,61c0,1.3,0,2.7,0,4c-2.6,1.2-4.6,3.6-5.4,5.6c-0.2,0.5-2.2,5.5-0.1,9.8c1.6,3.4,4.8,4.6,6.8,5.4
	c0.5,0.2,1.1,0.4,1.8,0.5c1.5,4.7,3.5,8.9,6,12.5c4.6,6.5,11.1,11,19.8,13.7c0,1.7,0.1,3.3,0.1,4.8c0,0.8,0,1.7,0.1,2.5
	c0.1,1.8,0.1,3.6,0.1,5.3c0,0.3,0,0.6,0,0.9c0,0.2,0,0.5,0,0.7c0,0,0,0.1,0,0.1l0,0.1c0,0.6,0.1,1.1,0.1,1.6l0,0c0,0-0.1,0-0.1,0
	c-0.1,0.1-0.3,0.1-0.5,0.2c-0.4,0.2-0.8,0.4-1.2,0.6c-1.7,0.9-2.6,2.8-2.2,4.7c0.4,1.8,2,3.1,3.9,3.2c0,0,0.1,0,0.1,0h0.2
	c2.9,0,5.1-1.6,6.5-2.9c1-0.9,1.5-2.1,1.4-3.4c0-0.3,0.1-0.6,0.1-0.9c0.1-1.1,0.1-2.3,0.1-3.6c0,0,0-0.1,0-0.1c0-0.3,0-0.8,0-1.2
	c0-2.8-0.1-5.5-0.2-8L57,115c0-0.2,0-0.3,0-0.5c3.3,0.5,6.8,0.8,10.9,1c0.9,0.1,1.9,0.1,2.9,0.1c2.5,0,5.1-0.1,7.6-0.4
	c0,0,0,0.1,0,0.1c0.5,3.5,1,7.2,1.4,10.8c0,0.3,0,0.7,0,1.1c0,0.6,0,1.3,0.1,2c-0.7,1.4-0.7,3.1,0.3,4.5c1.6,2.2,4.4,3,6.6,3
	c0.3,0,0.8,0,1.4-0.2c1.6-0.4,2.8-1.6,3.2-3.2c0.4-1.7-0.3-3.5-1.8-4.5c0,0-0.1,0-0.1-0.1c-0.5-0.3-1-0.5-1.3-0.7c0-0.3,0-0.7,0-1
	c0-0.6,0-1.3-0.1-2.1c-0.4-3.6-0.9-7.4-1.4-11c0-0.1,0-0.3-0.1-0.4c10.1-2.6,17.9-7.6,23.2-14.9c3.8-5.2,6.4-10.7,7.9-16.9
	c3.6-0.2,10.4-1.2,13.6-5.4C133.1,74.3,133.5,71.6,132.6,68.9z"/>
<g>
	<path class="st1" d="M106.8,96.6c10.2-14,9.6-28.8,8-44.9c-3.8-39.4-57-54.4-81.6-23.7c-7.3,9.1-9.7,21.6-9.8,33
		c-0.2,11.9,1.3,25.5,8.5,35.6c8.4,11.9,22.5,14.4,36.2,15C82.2,112.4,98.1,108.6,106.8,96.6"/>
	<path class="st2" d="M48.5,32c-11.3,0-20.4,9.1-20.4,20.4c0,11.3,9.1,20.4,20.4,20.4c11.3,0,20.4-9.1,20.4-20.4
		C68.9,41.2,59.8,32,48.5,32 M48.5,69.1c-9.2,0-16.7-7.4-16.7-16.7c0-9.2,7.4-16.7,16.7-16.7c9.2,0,16.7,7.4,16.7,16.7
		C65.2,61.7,57.7,69.1,48.5,69.1"/>
	<path class="st3" d="M48.8,79.5c-0.8,0.4-0.7,1.5-0.7,3.7c0,1.5,0.2,3,0.9,4l0-0.1c-0.6-1.1-0.6-1.7-0.6-3.2
		C48.5,82.6,48.7,81,48.8,79.5"/>
	<path class="st3" d="M49.1,35.8c-0.1,0-0.3,0-0.4,0c0.3,0,0.7,0,1,0l0.2,0C49.6,35.8,49.4,35.8,49.1,35.8"/>
	<path class="st4" d="M51.2,35.6c-0.7,0-1.3,0.1-2,0.1c0.3,0,0.5,0,0.8,0C50.3,35.7,50.7,35.7,51.2,35.6"/>
	<path class="st3" d="M66.1,66.1c-3,3.9-7.2,6.7-12.1,7.9c-1.3,0.4-2.6,0.7-3.9,0.7c-0.1,0-0.3,0-0.4,0c-0.4,0-0.7,0-1.1,0
		c-0.1,0-0.2,0-0.3,0l0,0.1c0.7,1.3,0.7,3,0.6,4.7c0.3-0.1,0.6-0.2,1.1-0.2c0.4,0,0.9,0,1.6,0.1c0.2,0,0.4,0,0.6,0
		c2.6,0,0.9-2.6,2.9-4.3c1.6-1.4,4.4-2,6.2-3.3C63.2,70.4,65.1,68.4,66.1,66.1 M25.3,58.5c0,0.9-0.1,1.7-0.1,2.6
		c-0.1,8.6,0.7,16,2.5,22.2c2.4-0.5,5.1-0.4,7.5-0.5c2.8-0.1,5.6-0.3,8.4-0.4c0.1-2.4,0.2-4.8-2.3-6.1c-1.7-1-3.7-0.8-5.5-1.7
		c-3.8-1.9-7-5.2-8.7-9.2C26.1,63.1,25.5,61,25.3,58.5 M78.6,14.7c0.2,0.1,0.5,0.2,0.7,0.3c-0.2-0.1-0.3-0.2-0.5-0.2L78.6,14.7
		 M67.9,13.4c-13,0-25.1,5.5-33.2,15.8c-4.5,5.6-6.9,12.4-8.2,19l0.1,0.2C28,41,32.9,34.9,39.6,32c0.1-0.1,0.2-0.2,0.3-0.3
		c3-3.7,6.3-8.8,10.6-10.8c5.5-2.6,10.9-4.5,17-5.6c2.4-0.4,5.2-1.2,7.8-1.2c0.3,0,0.6,0,1,0C73.4,13.7,70.6,13.4,67.9,13.4"/>
	<path class="st3" d="M42.5,86.4c-1,0-2.2,0.2-2.7,0.2c-1.7,0-5.2,0.8-8.3,0.8c-1,0-1.9-0.1-2.7-0.3c1.2,3.2,2.7,6.1,4.5,8.6
		c8.2,11.6,22.2,13.7,34.8,14.3l0.2,0c-4.5-1.4-8.8-3-12.4-6.9c-2.5-2.6-3.8-5.9-4.6-9.5c-0.5-2.1-0.1-3.6-0.2-5.2
		c-1.1-0.2-1.7-0.6-2.2-1.2c0.3,0.7,1,1.2,1.3,1.9c1.1,2.4,0.1,2.8-1.8,2.8c-0.3,0-0.6,0-0.9,0c-2.6-0.1-2.5-1.2-3.3-3.5
		c-0.3-0.7-0.2-1.4-0.7-1.8C43.4,86.4,43,86.4,42.5,86.4"/>
	<path class="st5" d="M26.5,48.2c-0.7,3.6-1,7.1-1.2,10.3c0.2,2.5,0.8,4.6,1.8,6.9c1.7,3.9,4.8,7.3,8.7,9.2c1.8,0.9,3.8,0.7,5.5,1.7
		c2.4,1.3,2.4,3.7,2.3,6.1c-2.8,0.1-5.6,0.3-8.4,0.4c-2.4,0.1-5.1,0-7.5,0.5c0.4,1.3,0.8,2.5,1.2,3.7c0.8,0.2,1.7,0.3,2.7,0.3
		c3,0,6.6-0.8,8.3-0.8c0.5,0,1.7-0.2,2.7-0.2c0.5,0,0.9,0.1,1.1,0.2c0.6,0.4,0.5,1.1,0.7,1.8c0.8,2.3,0.7,3.4,3.3,3.5
		c0.3,0,0.6,0,0.9,0c1.9,0,2.9-0.4,1.8-2.8c-0.3-0.8-1-1.3-1.3-1.9c-0.8-1-0.9-2.4-0.9-4c0-2.2-0.2-3.3,0.7-3.7
		c0.1-1.7,0.1-3.5-0.6-4.7l0-0.1c-12.1-0.2-21.9-10.1-21.9-22.3c0-1.4,0.1-2.7,0.4-4L26.5,48.2"/>
	<path d="M103.9,91.3c-0.1,0-0.2,0-0.3-0.1c-0.3-0.2-0.3-0.5-0.2-0.8c0.3-0.5,0.7-1,0.9-1.5c0.2-0.3,0.5-0.4,0.8-0.2
		c0.3,0.2,0.4,0.5,0.2,0.8c-0.3,0.5-0.6,1-1,1.6C104.3,91.2,104.1,91.3,103.9,91.3z"/>
	<path d="M101.3,94.6l-0.2,0c-0.3-0.1-0.4-0.4-0.3-0.7c0.2-0.4,0.4-0.7,0.7-0.9c0.2-0.2,0.6-0.2,0.8,0c0.2,0.2,0.2,0.6,0,0.8l0,0
		c-0.2,0.2-0.4,0.4-0.4,0.5C101.7,94.4,101.5,94.6,101.3,94.6z"/>
	<path d="M104.5,93.5c-0.1,0-0.3-0.1-0.4-0.2c-0.2-0.2-0.2-0.6,0-0.8c0.1-0.1,0.2-0.2,0.3-0.4c0.1-0.3,0.5-0.4,0.8-0.3
		c0.3,0.1,0.4,0.5,0.3,0.8c-0.1,0.3-0.3,0.5-0.5,0.7C104.8,93.4,104.6,93.5,104.5,93.5z"/>
	<path d="M107.7,87.1L107.7,87.1c-0.4,0-0.6-0.3-0.6-0.6c0.1-0.4,0.1-0.8,0.2-1.3c0-0.3,0.3-0.5,0.6-0.5c0.3,0,0.5,0.3,0.5,0.6
		c-0.1,0.5-0.1,0.9-0.2,1.3C108.2,86.9,108,87.1,107.7,87.1z"/>
	<path d="M96.2,99.1L96,99c-0.3-0.1-0.4-0.5-0.3-0.8c0.1-0.3,0.3-0.5,0.5-0.7c0.2-0.2,0.6-0.2,0.8,0s0.2,0.6,0,0.8
		c-0.1,0.1-0.2,0.2-0.3,0.4C96.6,99,96.4,99.1,96.2,99.1z"/>
	<path d="M70.9,113.6c-1.1,0-2,0-2.8-0.1c-12.7-0.6-28.5-2.9-37.6-15.8c-6.1-8.7-9-20.7-8.8-36.7c0.1-9.9,2-23.9,10.2-34.1
		c6.1-7.7,14.3-13,23.8-15.5c8.8-2.3,18.2-2.1,27.2,0.6c19,5.7,32,20.8,33.9,39.6c1.6,16.7,2.1,31.7-8.3,46.1
		C98.2,111.6,80.4,113.6,70.9,113.6 M67.9,13.4c-13,0-25.1,5.5-33.2,15.8c-7.6,9.5-9.3,22.6-9.4,31.9c-0.2,15.2,2.5,26.5,8.2,34.5
		c8.2,11.6,22.2,13.7,34.8,14.3c7.8,0.3,26.9-0.4,37.1-14.4c9.7-13.4,9.2-27.7,7.7-43.7c-1.7-17.2-13.6-31.2-31.3-36.4
		C77.1,14.1,72.4,13.4,67.9,13.4"/>
	<path d="M49.2,135.3H49c-1-0.1-1.9-0.7-2.1-1.7c-0.2-1,0.2-2,1.1-2.4c0.6-0.3,1.2-0.6,1.7-0.8c0.4-0.2,1-0.4,1.1-0.5
		c0,0,0.1-0.1,0.1-0.4c0.1-0.8,0.1-1.7,0-2.8c0-0.5-0.1-1.1-0.1-1.6c0-2.6-0.1-5.3-0.2-7.8c-0.1-2.4-0.2-4.8-0.2-7.3
		c0-1.2,1-2.2,2.2-2.2s2.2,1,2.2,2.2c0,2.4,0.1,4.8,0.2,7.1c0.1,2.6,0.2,5.3,0.2,8c0,0.5,0,1,0.1,1.4c0.1,1.1,0.1,2.2-0.1,3.3
		c-0.1,0.4-0.1,0.7-0.2,1.1c0.1,0.7-0.2,1.5-0.7,2C53.1,134.1,51.3,135.3,49.2,135.3z"/>
	<path d="M86.9,134.8c-1.8,0-3.9-0.7-5-2.2c-0.6-0.9-0.6-2.1,0.2-2.8c-0.2-0.9-0.2-1.7-0.2-2.5c0-0.5,0-1-0.1-1.4
		c-0.4-3.5-0.9-7.2-1.4-10.8c-0.2-1.1-0.3-2.2-0.5-3.3c-0.2-1.2,0.7-2.3,1.9-2.5c1.2-0.2,2.3,0.7,2.5,1.9c0.2,1.1,0.3,2.1,0.5,3.3
		c0.5,3.6,1,7.3,1.4,10.9c0.1,0.7,0.1,1.3,0.1,1.9c0,0.8,0,1.5,0.2,2.1c0.1,0.3,0.1,0.3,0.8,0.7c0.3,0.2,0.8,0.4,1.3,0.7
		c0.8,0.5,1.2,1.4,1,2.3s-0.9,1.6-1.9,1.7C87.4,134.8,87.2,134.8,86.9,134.8z"/>
	<path d="M52.3,61.1c-2.3,0-4.5-1.1-5.8-3.1c-2-2.9-1.8-7.1,0.6-9.9c2.1-2.4,5.1-3.2,7.9-2.2c3,1.1,5.2,4.3,5.2,7.7
		c0,3.2-2,5.8-5.1,7C54.1,60.9,53.2,61.1,52.3,61.1 M52.2,52.5c-0.3,0.2-0.6,1-0.5,1.2c0.1,0.1,0.3,0.2,0.8,0.2c0.6,0,1-0.2,1.1-0.3
		c0.2-0.2,0.1-0.5,0-0.6C53.2,52.6,52.5,52.4,52.2,52.5"/>
	<path d="M90.3,58.9c-1.2,0-2.3-0.6-3-1.6c-1-1.5-0.8-3.6,0.4-4.9c1.1-1.2,2.6-1.6,4.1-1c1.5,0.6,2.6,2.2,2.6,3.8
		c0,1.6-1,2.9-2.6,3.4C91.2,58.8,90.7,58.9,90.3,58.9z M90.5,55.4l0.5,1.2L90.5,55.4c0.2,0,0.3-0.1,0.4-0.2c0.1-0.1,0.1-0.2,0-0.3
		c-0.2-0.2-0.5-0.3-0.6-0.3c-0.1,0.1-0.2,0.2-0.2,0.4c-0.1,0.2,0,0.3,0,0.3c0,0,0.1,0.1,0.3,0.1L90.5,55.4z"/>
	<path d="M72,67.6c-2.1,0-3.7-1.3-4.2-3.4c-0.2-0.6,0.2-1.2,0.8-1.4s1.2,0.2,1.4,0.8c0.2,0.8,0.8,1.8,2.3,1.7c1.1-0.1,1.4-0.6,2-2.1
		c0.2-0.6,0.8-0.8,1.4-0.6c0.6,0.2,0.8,0.8,0.6,1.4c-0.6,1.4-1.3,3.3-3.9,3.5C72.3,67.6,72.1,67.6,72,67.6z"/>
	<path d="M30.7,85.3c-0.6,0-1.1,0-1.7-0.1l-0.6-0.1c-2.1-0.2-4.7-0.5-6.7-1.2c-1.7-0.7-4.5-1.7-5.7-4.4c-1.6-3.2-0.3-7,0.1-8.1
		c0.8-2.1,3.8-5.1,6.7-5.2h0.1c1.2,0,2.1,1,2.2,2.1c0,1.2-1,2.2-2.1,2.3c-0.6,0-2.3,1.4-2.7,2.4c-0.7,1.7-0.7,3.5-0.2,4.6
		c0.5,1,1.7,1.6,3.4,2.2c1.5,0.6,3.7,0.8,5.5,1l0.7,0.1c1.8,0.2,4-0.1,6.1-0.3c0.7-0.1,1.3-0.2,1.9-0.2c1.1-0.1,2.3-0.1,3.4-0.1
		c1.7,0,3.4,0,4.8-0.4c1.2-0.3,2.4,0.3,2.7,1.5c0.3,1.2-0.3,2.4-1.5,2.7c-1.9,0.6-4,0.6-6,0.6c-1.1,0-2.1,0-3,0.1
		c-0.6,0.1-1.2,0.1-1.9,0.2C34.4,85.1,32.6,85.3,30.7,85.3z"/>
	<path d="M49,85.1c-0.1,0-0.3,0-0.5,0c-1.7-0.2-2.9-1.3-3.2-2.9c-0.3-1.9,0.7-3.9,2.4-4.6c1.4-0.6,3-0.4,4,0.7
		c1.2,1.2,1.5,3.2,0.7,4.8C51.8,84.3,50.5,85.1,49,85.1z M48.9,81.5c0.3,0.2,0.6,0.1,0.7,0.1l0.1-0.1c0-0.2-0.3-0.7-0.7-0.7
		L48.9,81.5z M48.5,81.1c0,0,0.1,0.2,0.4,0.3l0.1-0.7C48.7,80.8,48.5,81,48.5,81.1z"/>
	<path d="M51,90.5c-1,0-1.8-0.2-2-0.3c-2-0.8-2-2.5-1.9-3.3c0-0.1,0-0.3,0-0.4c0-0.7,0-1.4,0-2c0-1.3,0.1-2.5,0-3.7
		c0-0.5-0.1-1.1-0.1-1.6c-0.1-1.7-0.1-3.4-0.4-4.9c-0.1-0.7,0.1-1.3,0.6-1.7c1.5-1.2,4.8-1.6,6.1-1.4c0.8,0.1,1.4,0.7,1.6,1.5
		c0.4,2.5,0.3,4.9,0.3,7.2c0,0.5,0,0.9,0,1.3c-0.1,5.6-0.6,7.3-1.1,8.1C53.4,90.2,52.1,90.5,51,90.5z M50.7,86.8c0.1,0,0.2,0,0.3,0
		c0.2-0.7,0.4-2.4,0.5-5.7c0-0.5,0-0.9,0-1.4c0-1.6,0.1-3.3-0.1-5c-0.3,0.1-0.7,0.1-1,0.2c0.2,1.4,0.2,2.8,0.2,4.1
		c0,0.6,0.1,1.1,0.1,1.6c0.1,1.4,0.1,2.6,0,3.9c0,0.6,0,1.3,0,1.9C50.7,86.6,50.7,86.7,50.7,86.8z"/>
	<path d="M48.5,74.7c-12.3,0-22.3-10-22.3-22.3c0-12.3,10-22.3,22.3-22.3c12.3,0,22.3,10,22.3,22.3C70.8,64.7,60.7,74.7,48.5,74.7
		 M48.5,33.9c-10.3,0-18.6,8.3-18.6,18.6c0,10.3,8.3,18.6,18.6,18.6c10.3,0,18.6-8.3,18.6-18.6C67.1,42.2,58.7,33.9,48.5,33.9"/>
	<path class="st0" d="M57.1,52c1.6-1.1,0.3-4.5-1.6-2.9C54.3,50.2,55.3,53.3,57.1,52"/>
	<path class="st0" d="M92.6,53.9c1.1-0.7,0.2-3-1-1.9C90.7,52.7,91.4,54.8,92.6,53.9z"/>
	<path d="M113.1,81.1c-1.2,0-2.5-0.5-3.2-1.6c-0.6-1.1-0.5-2.6,1.1-3.8c1.5-1.1,3.1-0.5,3.8-0.2c0.1,0.1,0.2,0.1,0.3,0.1
		c0.3,0.1,0.5,0.1,1,0.1c3.9,0,8.8-1.1,10.2-2.9c0.3-0.3,0.5-0.9,0.2-2c-0.2-0.8-2.5-1.9-3.5-2.4l-0.4-0.2c-1.4-0.6-2.5-1.1-3.6-1.5
		c-0.4-0.1-0.8-0.3-1.2-0.5c-0.5-0.2-1.2-0.5-1.5-0.5c-1.2,0.1-2.3-0.7-2.4-2c-0.1-1.2,0.8-2.3,2-2.4c1.3-0.1,2.6,0.5,3.7,0.8
		c0.3,0.1,0.6,0.3,0.8,0.3c1.2,0.4,2.5,1,4.1,1.7l0.4,0.2c2,1,5.1,2.4,5.9,5.1c0.7,2.1,0.3,4.2-0.9,5.9c-3.3,4.5-12,4.7-13.7,4.7
		c-0.1,0-0.2,0-0.3,0c-0.2,0.3-0.6,0.5-0.9,0.6C114.4,80.9,113.8,81.1,113.1,81.1z"/>
	<path d="M61.5,16.5c-0.8,0-1.5-0.5-1.7-1.2c-0.2-0.7-0.5-1.6-0.7-2.3c-0.6-1.8-1.1-3.7-1.9-5.2c-0.5-0.9-0.1-2,0.8-2.5
		c0.9-0.5,2-0.1,2.4,0.8c0.9,1.9,1.5,3.9,2.1,5.8c0.2,0.8,0.5,1.5,0.7,2.2c0.3,1-0.2,2-1.2,2.3C61.8,16.5,61.6,16.5,61.5,16.5z"/>
	<path d="M68.8,15.7L68.8,15.7c-1.1-0.1-1.9-0.9-1.8-1.9c0.1-1.4,0-2.9-0.1-4.5c-0.1-1.2-0.1-2.5-0.1-3.8c0-1,0.8-1.8,1.8-1.8
		s1.8,0.8,1.8,1.8c0,1.2,0.1,2.4,0.1,3.6c0.1,1.6,0.2,3.2,0.1,4.8C70.6,15,69.8,15.7,68.8,15.7z"/>
	<path d="M75.4,17c-0.2,0-0.4-0.1-0.6-0.1c-1-0.3-1.5-1.4-1.1-2.4c0.6-1.6,1.5-3,2.4-4.5c0.9-1.4,1.7-2.7,2.2-4
		c0.3-1,1.4-1.5,2.3-1.1c1,0.3,1.5,1.4,1.1,2.3c-0.6,1.7-1.6,3.3-2.6,4.8c-0.8,1.3-1.6,2.5-2.1,3.8C76.8,16.5,76.1,17,75.4,17z"/>
	<path d="M91,41.8c-0.1,0-0.2,0-0.4-0.1c-1.8-0.7-3.3-0.8-5.1-0.5c-0.6,0.1-1.2-0.3-1.2-0.9c-0.1-0.6,0.3-1.2,0.9-1.2
		c2.1-0.4,4.1-0.2,6.2,0.6c0.6,0.2,0.8,0.8,0.7,1.4C91.8,41.5,91.4,41.8,91,41.8z"/>
	<path d="M53.4,28.8c-0.7,0-1.5-0.2-2.2-0.3c-0.7-0.1-1.3-0.3-1.9-0.3c-0.6,0-1.1-0.5-1.1-1.1c0-0.6,0.5-1.1,1.1-1.1
		c0.8,0,1.6,0.2,2.3,0.3c0.7,0.2,1.4,0.3,1.9,0.2c0.6-0.1,1.1,0.4,1.2,1c0.1,0.6-0.4,1.1-1,1.2C53.6,28.8,53.5,28.8,53.4,28.8z"/>
	<path class="st6" d="M52.3,52.5l-0.1,0c-0.3,0.2-0.6,1-0.5,1.2c0.1,0.1,0.3,0.2,0.8,0.2c0.6,0,1-0.2,1.1-0.3c0.2-0.2,0.1-0.5,0-0.6
		C53.2,52.7,52.6,52.5,52.3,52.5 M52.3,61.1c-2.3,0-4.5-1.1-5.8-3.1c-2-2.9-1.8-7.1,0.6-9.9c1.5-1.7,3.5-2.6,5.5-2.6
		c0.8,0,1.6,0.1,2.4,0.4c3,1.1,5.2,4.3,5.2,7.7c0,3.2-2,5.8-5.1,7C54.1,60.9,53.2,61.1,52.3,61.1 M49.7,35.8
		c-5.4,1.2-12.2,6.9-12.8,12c-0.5,3.8-0.8,7.4,1.1,10.9c1.6,3.1,3.9,6.3,7.3,7.6c2.5,1,5.1,1,7.8,1.3c-1.4,0.5-2.9,0.7-4.5,0.7
		c-5,0-10.6-2.3-13.4-6c3,4.1,7.9,6.7,13.4,6.7c9.2,0,16.7-7.4,16.7-16.7C65.2,43.7,58.3,36.5,49.7,35.8 M48.5,35.8
		c-9.2,0-16.7,7.5-16.7,16.7c0,3.5,1.1,6.8,3,9.5c-0.1-0.1-0.1-0.2-0.2-0.3c-2.7-4.3-3-11.4-1-16.1c0.6-1.6,1.7-3.2,3.2-4.6
		c1.9-1.9,4.3-3.4,6.6-4.1c1.6-0.5,3.5-0.9,5.3-1.1L48.5,35.8"/>
	<path class="st7" d="M65.2,52.5c0,9.2-7.5,16.7-16.7,16.7c-5.5,0-10.3-2.6-13.4-6.7c-0.1-0.2-0.2-0.3-0.3-0.5c-1.9-2.7-3-6-3-9.5
		l0,0c0,9.2,7.5,16.7,16.7,16.7C57.7,69.2,65.2,61.7,65.2,52.5L65.2,52.5"/>
	<path class="st8" d="M48.7,35.8c-1.8,0.2-3.7,0.6-5.3,1.1c-2.3,0.7-4.7,2.3-6.6,4.1c-1.4,1.4-2.5,2.9-3.2,4.6
		c-2,4.7-1.7,11.7,1,16.1c0.1,0.1,0.1,0.2,0.2,0.3c0.1,0.2,0.2,0.3,0.3,0.5c2.8,3.7,8.4,6,13.4,6c1.6,0,3.1-0.2,4.5-0.7
		c-2.6-0.3-5.2-0.3-7.8-1.3c-3.4-1.3-5.7-4.5-7.3-7.6c-1.9-3.5-1.5-7.1-1.1-10.9c0.6-5.2,7.4-10.8,12.8-12
		C49.4,35.8,49,35.8,48.7,35.8"/>
	<path class="st2" d="M34.8,61.9c0.1,0.2,0.2,0.3,0.3,0.5C35,62.3,34.9,62.1,34.8,61.9"/>
	<path class="st9" d="M52.5,54c-0.5,0-0.7-0.2-0.8-0.2c-0.2-0.3,0.1-1,0.5-1.2l0.1,0c0.3,0,0.9,0.2,1.3,0.6c0.1,0.1,0.2,0.3,0,0.6
		C53.5,53.7,53.1,54,52.5,54 M56.3,52.3c-1.3,0-1.8-2.3-0.7-3.2c0.3-0.3,0.7-0.4,0.9-0.4c1.3,0,1.9,2.4,0.6,3.3
		C56.8,52.2,56.5,52.3,56.3,52.3 M52.5,45.5c-2,0-4,0.9-5.5,2.6c-2.4,2.8-2.6,6.9-0.6,9.9c1.4,2,3.5,3.1,5.8,3.1
		c1,0,1.9-0.2,2.8-0.5c3.2-1.2,5.1-3.8,5.1-7c0-3.3-2.2-6.5-5.2-7.7C54.1,45.6,53.3,45.5,52.5,45.5"/>
	<path class="st0" d="M56.5,48.7c-0.3,0-0.6,0.1-0.9,0.4c-1,0.9-0.5,3.2,0.7,3.2c0.3,0,0.5-0.1,0.9-0.3
		C58.4,51.1,57.8,48.7,56.5,48.7"/>
	<path d="M48.5,70.2c-9.8,0-17.8-7.9-17.8-17.8s8-17.8,17.8-17.8s17.8,8,17.8,17.8S58.3,70.2,48.5,70.2z M48.5,36.9
		c-8.6,0-15.6,7-15.6,15.6S39.9,68,48.5,68s15.6-7,15.6-15.6C64.1,43.9,57.1,36.9,48.5,36.9z"/>
</g>
</svg>
